<svg xmlns="http://www.w3.org/2000/svg" viewBox="0 0 400 300"><g id="_545_swimming_suit_flatline" data-name="#545_swimming_suit_flatline"><path d="M161.55,208.55a89.54,89.54,0,0,0,10.14.38c8.28.08,51.16,7.07,60.24,6.89s20-.31,20-.31L250.67,223l-7.22.48s-9.21,13.47-17.84,23.69c-7.43,8.81-19.44,19.48-19.44,19.48L194,265s-8.27-12.1-18.69-25.66A206.07,206.07,0,0,1,159.44,216Z" fill="#e6e7e8"/><path d="M206.17,267.11h-.06l-12.21-1.57a.51.51,0,0,1-.35-.22c-.08-.12-8.38-12.24-18.67-25.64A207.46,207.46,0,0,1,159,216.23a.48.48,0,0,1,0-.37l2.1-7.44a.5.5,0,0,1,.56-.36,95.71,95.71,0,0,0,10.07.37c3.87,0,15.12,1.55,27,3.16,13.94,1.88,28.33,3.83,33.2,3.73,9.09-.17,20-.31,20-.31h0a.52.52,0,0,1,.38.17.54.54,0,0,1,.11.41L251.16,223a.48.48,0,0,1-.46.42l-7,.47C242.54,225.65,234,238,226,247.46c-7.38,8.73-19.38,19.42-19.5,19.52A.51.51,0,0,1,206.17,267.11Zm-11.92-2.55L206,266.08c1.48-1.33,12.37-11.16,19.22-19.27,8.52-10.08,17.71-23.51,17.8-23.65a.5.5,0,0,1,.38-.22l6.83-.45L251.3,216c-2.39,0-11.54.16-19.36.31-4.92.09-19.37-1.85-33.35-3.74-11.88-1.6-23.1-3.11-26.91-3.15-6.22-.05-8.84-.24-9.77-.33L160,215.93a211.21,211.21,0,0,0,15.69,23.14C185.28,251.58,193.16,263,194.25,264.56Z" fill="#231f20"/><path d="M251.89,215.51s-26.66,6.24-52.7,3.14-37.64-10.1-37.64-10.1L159.44,216s34.16,24.46,34.92,53.41l11.82,1s10-24.65,23.85-35.15S250.67,223,250.67,223Z" fill="#5fc6d2"/><path d="M206.18,270.94h0l-11.82-1a.5.5,0,0,1-.46-.48c-.75-28.38-34.37-52.78-34.71-53a.49.49,0,0,1-.19-.54l2.1-7.44a.55.55,0,0,1,.3-.33.49.49,0,0,1,.44,0c.12.07,11.86,7,37.45,10s52.26-3.07,52.52-3.13a.51.51,0,0,1,.46.12.5.5,0,0,1,.15.45L251.16,223a.51.51,0,0,1-.36.41c-.07,0-6.9,1.94-20.46,12.24s-23.59,34.69-23.69,34.94A.51.51,0,0,1,206.18,270.94Zm-11.34-2,11,1c1.28-3,11-25.23,23.87-35,12.28-9.32,19-11.83,20.5-12.32l1-6.42c-4.46,1-28.69,5.79-52.14,3-22.7-2.71-34.63-8.45-37.28-9.86l-1.84,6.5C163.31,218.24,193.8,241.67,194.84,268.94Z" fill="#231f20"/><path d="M158.71,212.06c-2,0-5.45-.19-6.93-1.44a6.08,6.08,0,0,1-2.31-4.1,3.27,3.27,0,0,1,1.94-3.41,3.63,3.63,0,0,1,2.41.19h0c2.71,1,6.56,7.69,6.72,8a.5.5,0,0,1-.4.75C160.07,212,159.51,212.06,158.71,212.06ZM152.26,204a1.91,1.91,0,0,0-.54.08,2.28,2.28,0,0,0-1.25,2.38,5.26,5.26,0,0,0,2,3.42c1.26,1.07,4.83,1.24,6.82,1.19-1.32-2.17-4-6.16-5.78-6.81h0A3.34,3.34,0,0,0,152.26,204Z" fill="#231f20"/><path d="M142.62,237.28a.48.48,0,0,1-.45-.28.5.5,0,0,1,.23-.67c11.18-5.49,16.89-23.18,16.95-23.35a.5.5,0,1,1,1,.3c-.23.74-5.89,18.27-17.46,23.95A.59.59,0,0,1,142.62,237.28Z" fill="#231f20"/><path d="M154.4,235.67a.49.49,0,0,1-.3-.1.51.51,0,0,1-.09-.71c7.85-10.13,5-18.62,5-18.7a.5.5,0,1,1,.94-.34c.13.37,3.1,9.07-5.11,19.66A.53.53,0,0,1,154.4,235.67Z" fill="#231f20"/><path d="M153.52,218.14a2.45,2.45,0,0,1-2.34-1.23c-.68-1.35.31-2.84,1.45-3.78h0c1.37-1.13,6.85-1.87,7.47-1.94a.47.47,0,0,1,.48.23.48.48,0,0,1,0,.54c-.34.51-3.39,5.09-5.33,5.85A4.92,4.92,0,0,1,153.52,218.14Zm5.58-5.8c-2.22.34-5.1.95-5.83,1.56h0c-.81.67-1.61,1.74-1.2,2.56s1.75.83,2.81.42S158,214,159.1,212.34ZM153,213.51h0Z" fill="#231f20"/><path d="M255.18,226.12h-.06a2.76,2.76,0,0,1-1.63-.67h0a9.23,9.23,0,0,1-2.31-3.4l-.13-.25c-.34-.59-.52-.94-.35-1.26.36-.73,1.47-.66,3.72.21.81.31,2.7,1.18,3,2.51a2.49,2.49,0,0,1-2.27,2.87Zm-1.07-1.47a2,2,0,0,0,1,.47,1.32,1.32,0,0,0,1-.55,1.29,1.29,0,0,0,.32-1.08c-.18-.72-1.41-1.43-2.41-1.81a7.87,7.87,0,0,0-2.3-.65l.15.27c0,.08.08.14.09.17l.07.14a8.42,8.42,0,0,0,2,3Z" fill="#231f20"/><path d="M251.53,220.35a.5.5,0,0,1-.45-.28.49.49,0,0,1,.08-.55c1.1-1.25,3.78-4.18,4.83-4.31a2.36,2.36,0,0,1,1.66.34,2.58,2.58,0,0,1,1.08,1.95,2.11,2.11,0,0,1-.61,1.54h0c-.93,1-5.26,1.26-6.57,1.31Zm4.87-4.16h-.29a15.92,15.92,0,0,0-3.39,3.09c2.14-.16,4.28-.51,4.66-.92h0a1.15,1.15,0,0,0,.35-.83,1.56,1.56,0,0,0-.64-1.16A1.17,1.17,0,0,0,256.4,216.19Z" fill="#231f20"/><path d="M253,238a.49.49,0,0,1-.46-.31c-2.22-5.54-1.94-16.47-1.93-16.93a.51.51,0,0,1,.5-.49h0a.5.5,0,0,1,.5.48c0,.09.47,9.14,6.62,13.53a.5.5,0,0,1,.11.69.49.49,0,0,1-.69.12,16.74,16.74,0,0,1-6-8.69c.17,3.58.62,8.06,1.76,10.91a.49.49,0,0,1-.28.65A.39.39,0,0,1,253,238Z" fill="#231f20"/><path d="M222.37,198.9h-.11a.5.5,0,0,1-.44-.55.49.49,0,0,1,.55-.44s1.07.05,1.73-1.68c.5-1.61-5.45-20.42-9.31-31.89a.51.51,0,0,1,.31-.64.52.52,0,0,1,.64.32c1.7,5,10.14,30.36,9.29,32.57S222.78,198.9,222.37,198.9Z" fill="#231f20"/><path d="M210.47,164.86s-1.11-10,7.62-25.19c10.2-17.75,22.38-21.95,22.38-21.95s7,4.1,1.21,23.38S215.8,165.54,210.47,164.86Z" fill="#e6e7e8"/><path d="M211.66,165.43a9.49,9.49,0,0,1-1.25-.07.51.51,0,0,1-.44-.44c-.05-.42-1-10.33,7.69-25.5,10.17-17.71,22.14-22,22.64-22.18a.52.52,0,0,1,.42.05c.3.17,7.26,4.52,1.44,24C236.85,158.94,219.13,165.43,211.66,165.43Zm-.72-1c5.32.31,24.59-4.53,30.26-23.44,5-16.79.21-21.83-.81-22.68-1.74.71-12.67,5.64-21.87,21.64C211,153.09,210.86,162.4,210.94,164.4Z" fill="#231f20"/><path d="M206.3,163.18a5.25,5.25,0,0,1,.58,2.64c-.28,2.11-6.5,1.3-8.61,1.58-11.76,1.55-20.47-2.56-26.76-12.63-3.71-6-5.93-14.58-4.11-21.53,1.33-5.06,1.57-14,7.25-12.22,6,1.85,15.31,12.12,18.71,17C198.15,144.79,203.07,155.48,206.3,163.18Z" fill="#e6e7e8"/><path d="M193.62,168.21c-9.61,0-17-4.34-22.53-13.17-3.48-5.57-6.12-14.51-4.17-21.93.25-1,.47-2.09.69-3.28.69-3.58,1.47-7.64,3.8-9a4,4,0,0,1,3.39-.26c6.18,1.92,15.55,12.28,19,17.15,5.13,7.29,10.34,19,13,25.3h0a5.51,5.51,0,0,1,.61,2.9c-.26,2-3.67,2-6.69,1.94a19.93,19.93,0,0,0-2.34.06A35.21,35.21,0,0,1,193.62,168.21Zm-20.34-46.92a2.63,2.63,0,0,0-1.36.36c-1.94,1.17-2.68,5-3.32,8.37-.23,1.2-.45,2.34-.72,3.34-1.87,7.13.69,15.76,4.06,21.15,6.15,9.86,14.75,13.91,26.27,12.39a19.82,19.82,0,0,1,2.47-.07c2.09,0,5.56,0,5.7-1.08a4.89,4.89,0,0,0-.54-2.38h0c-2.64-6.28-7.81-17.89-12.89-25.11-3.56-5.06-12.77-15-18.45-16.76A4,4,0,0,0,173.28,121.29Z" fill="#231f20"/><path d="M261.3,143.8c-2.25-14.22-12.51-22.54-18.24-26.15h0S232,91.64,211.4,89.78,180.69,96.44,171,118.6h0c-4.66,5.37-15.67,18.9-18,29.16-3,13.08-1.08,23.63,12.32,34.05,0,0,40.79-13.52,41-15.77s-25.76-28.79-32.21-46.52c0-.07,4.27-10.48,9.28-16.82s14.7-10.7,21-11.38,16.32,2,21.86,7.59c4.24,4.28,10.12,14.63,12.59,19.13-3.34,15.76-28.32,46.82-28.32,46.82s38,18,40.68,16S264.46,163.79,261.3,143.8Z" fill="#5fc6d2"/><path d="M165.29,182.31a.5.5,0,0,1-.31-.1c-12.31-9.58-15.93-19.59-12.5-34.57,2.37-10.32,13.39-23.89,18.08-29.31,10.2-23.26,20.89-30.86,40.88-29,19.83,1.8,31.07,25.92,32,28,6,3.78,16.09,12.18,18.34,26.42h0c3.12,19.77-7.26,35.14-10.33,37.49-2.79,2.13-34.81-12.86-41.21-15.89a.5.5,0,0,1-.17-.77c.25-.31,24.76-30.92,28.18-46.43-2.41-4.4-8.25-14.66-12.41-18.86-5.38-5.44-15.32-8.09-21.45-7.44-6.34.68-15.8,5.05-20.66,11.19-4.62,5.85-8.56,15.13-9.14,16.52,4.38,11.83,17.56,27.82,25.45,37.39,5.43,6.59,6.8,8.35,6.73,9.16-.05.61-.15,1.73-20.9,9.16-10.11,3.62-20.33,7-20.43,7ZM206.17,90c-16.22,0-25.66,8.06-34.72,28.77a.5.5,0,0,1-.08.12c-4.61,5.33-15.59,18.8-17.91,29-3.31,14.45.14,24.14,11.93,33.38,15-5,38.88-13.41,40.38-15.29-.27-.85-3.29-4.52-6.49-8.4-8-9.68-21.31-25.87-25.68-37.87a.55.55,0,0,1,0-.36c.05-.1,4.34-10.59,9.36-16.94s14.79-10.86,21.33-11.56,16.6,2,22.27,7.73c4.3,4.34,10.29,14.9,12.67,19.24a.53.53,0,0,1,.05.35c-3.13,14.79-24.71,42.35-28,46.53,18.29,8.65,38,16.85,39.6,15.74,3-2.28,13-17.22,10-36.54h0c-2.2-14-12.23-22.16-18-25.81a.47.47,0,0,1-.19-.23c-.11-.26-11.09-25.74-31.25-27.56C209.55,90.11,207.82,90,206.17,90Z" fill="#231f20"/><path d="M205.14,164.19a2.85,2.85,0,0,0-.82,1.8c0,1,1.11,1.66,2.08,1.95a5,5,0,0,0,2.66.14C213.5,166.9,208.87,159.39,205.14,164.19Z" fill="#231f20"/><path d="M208.07,168.7a6.48,6.48,0,0,1-1.81-.29c-1.48-.43-2.39-1.33-2.44-2.4a3.39,3.39,0,0,1,.92-2.13h0c1.2-1.54,2.71-2.11,4.14-1.58a4,4,0,0,1,2.49,3.74,2.68,2.68,0,0,1-2.19,2.52A4.32,4.32,0,0,1,208.07,168.7Zm-2.54-4.21a2.53,2.53,0,0,0-.72,1.47c0,.74.92,1.26,1.73,1.5a4.55,4.55,0,0,0,2.39.14,1.71,1.71,0,0,0,1.45-1.61,3,3,0,0,0-1.85-2.76c-1-.38-2.06.06-3,1.26Z" fill="#231f20"/><path d="M195.68,166.84c-1.57,0-3.17,0-4.7-.09a.5.5,0,1,1,0-1c4.29.18,9.2.05,12.26-.07-4.24-1.39-12.21-4.57-17.56-10.2a.49.49,0,0,1,0-.7.5.5,0,0,1,.71,0c7.22,7.6,19.82,10.73,20,10.76a.5.5,0,0,1-.09,1C206.25,166.54,201.16,166.84,195.68,166.84Z" fill="#231f20"/><path d="M213.13,164.7c-.83,0-1.45,0-1.64,0a.51.51,0,0,1-.47-.39.52.52,0,0,1,.26-.56c.09,0,9.08-4.76,12.1-10.5a.5.5,0,1,1,.88.47c-2.38,4.53-8.07,8.32-10.89,10,2.07,0,4.81-.17,5.69-.75a.5.5,0,0,1,.69.14.51.51,0,0,1-.14.7C218.42,164.57,215.15,164.7,213.13,164.7Z" fill="#231f20"/><path d="M224.85,167.59c-4.06,0-13.09-2.81-13.49-2.94A.49.49,0,0,1,211,164a.49.49,0,0,1,.62-.33c.1,0,9.94,3.1,13.58,2.88a.5.5,0,1,1,.06,1Z" fill="#231f20"/><path d="M202.43,88.93c-.74.54-1.29,1.85-.53,2.6.95.93,2.8.19,3.82-.27a2.39,2.39,0,0,0,.83-.56,1,1,0,0,0,.24-.94,1.38,1.38,0,0,0-.7-.69,4.77,4.77,0,0,0-1.83-.61A2.75,2.75,0,0,0,202.43,88.93Z" fill="#231f20"/><path d="M203.16,92.47a2.2,2.2,0,0,1-1.61-.59,1.73,1.73,0,0,1-.51-1.4,2.79,2.79,0,0,1,1.09-2h0A3.2,3.2,0,0,1,204.3,88a5.13,5.13,0,0,1,2,.66,1.84,1.84,0,0,1,.93,1,1.46,1.46,0,0,1-.33,1.42,2.78,2.78,0,0,1-1,.69A7.12,7.12,0,0,1,203.16,92.47Zm-.44-3.14a1.8,1.8,0,0,0-.69,1.22.74.74,0,0,0,.21.62c.53.51,1.63.39,3.28-.36a2.12,2.12,0,0,0,.66-.44.53.53,0,0,0,.14-.45c-.06-.17-.3-.32-.48-.42a4.18,4.18,0,0,0-1.62-.54,2.27,2.27,0,0,0-1.5.37Z" fill="#231f20"/><path d="M193,110.29H193a.5.5,0,0,1-.45-.55c1.51-13.62,8.89-17.84,9.2-18a.5.5,0,1,1,.48.87c-.07,0-7.24,4.18-8.68,17.25A.51.51,0,0,1,193,110.29Z" fill="#231f20"/><path d="M221.19,106.79c-2-.61-4.43-3.43-7.13-8.41-3.91-7.18-9.42-6.59-9.65-6.56a.5.5,0,0,1-.56-.43.49.49,0,0,1,.43-.56c.25,0,6.4-.74,10.65,7.07,2.51,4.6,4.81,7.41,6.49,7.92l-.08.49Z" fill="#231f20"/><ellipse cx="196.18" cy="68.34" rx="63.55" ry="28.91" transform="translate(-9.55 97.16) rotate(-27.18)" fill="#fff"/><path d="M162.66,107.57c-11.39,0-20-3.29-23.45-10-3.62-7.06-1-16.73,7.27-27.23S167.59,50,182.75,42.18s30.8-12.42,44-13,22.74,2.9,26.37,10,1,16.72-7.28,27.22-21.1,20.41-36.26,28.19C192.76,103.16,175.85,107.57,162.66,107.57Zm67.15-77.51c-1,0-1.95,0-3,.07-13.1.62-28.59,5.22-43.63,12.94S155.41,60.71,147.27,71s-10.6,19.47-7.17,26.15c7.15,13.93,38.13,12.35,69.06-3.53C224.2,85.89,237,76,245.1,65.69s10.6-19.46,7.17-26.15h0C249.1,33.38,241.18,30.06,229.81,30.06Z" fill="#231f20"/><path d="M218.58,51.53s1,10.61-18.59,21.32C181.16,83.12,172.43,78,172.43,78a55.46,55.46,0,0,1-2.71-7.28C166.61,60.39,164,41.88,182.18,35.2c16.47-6.07,26.74,2.27,32,9.1A34.5,34.5,0,0,1,218.58,51.53Z" fill="#fff"/><path d="M179.08,79.82c-4.48,0-6.72-1.24-6.9-1.35a.51.51,0,0,1-.2-.21,56.29,56.29,0,0,1-2.74-7.36c-3.17-10.58-5.73-29.36,12.77-36.17,17.22-6.34,27.8,3.08,32.58,9.26A35.21,35.21,0,0,1,219,51.34a.83.83,0,0,1,0,.15c0,.44.84,11-18.85,21.8C190.67,78.5,183.69,79.82,179.08,79.82Zm-6.27-2.15c1.15.55,9.85,4.06,26.94-5.26,18.23-9.95,18.36-19.84,18.33-20.76a34.7,34.7,0,0,0-4.28-7c-5.63-7.29-15.66-14.75-31.44-8.93-17.74,6.53-15.23,24.7-12.16,35A56.14,56.14,0,0,0,172.81,77.67Z" fill="#231f20"/><path d="M218.58,51.53s1,10.61-18.59,21.32C181.16,83.12,172.43,78,172.43,78a55.46,55.46,0,0,1-2.71-7.28s8.83,2.94,29.51-10.19c11-7,15-16.27,15-16.27A34.5,34.5,0,0,1,218.58,51.53Z" fill="#231f20"/><path d="M179.08,79.82c-4.48,0-6.72-1.25-6.9-1.35a.61.61,0,0,1-.2-.22,57.52,57.52,0,0,1-2.74-7.35.52.52,0,0,1,.13-.5.5.5,0,0,1,.51-.11c.08,0,8.94,2.65,29.08-10.14a40.2,40.2,0,0,0,14.77-16,.5.5,0,0,1,.85-.11A35,35,0,0,1,219,51.34a.4.4,0,0,1,0,.15c.05.44.85,11-18.84,21.8C190.67,78.5,183.69,79.82,179.08,79.82Zm-6.27-2.15c1.14.55,9.85,4.07,26.94-5.26,18.24-9.95,18.37-19.85,18.33-20.76a34.3,34.3,0,0,0-3.79-6.41A42.41,42.41,0,0,1,199.5,61c-17.27,11-26.33,10.84-29.06,10.43A56.62,56.62,0,0,0,172.81,77.67Z" fill="#231f20"/><circle cx="210.8" cy="168.4" r="11.08" fill="#231f20"/><path d="M210.82,180a11.92,11.92,0,0,1-2.22-.21A11.58,11.58,0,0,1,213,157h0a11.58,11.58,0,0,1-2.17,23Zm0-22.17a10.57,10.57,0,1,0,2,.19h0A10.6,10.6,0,0,0,210.79,157.81Z" fill="#231f20"/><circle cx="205.61" cy="195.31" r="11.08" fill="#231f20"/><path d="M205.63,206.9a11.12,11.12,0,0,1-2.21-.22,11.58,11.58,0,0,1,4.38-22.75h0A11.6,11.6,0,0,1,217,197.5a11.6,11.6,0,0,1-11.35,9.4Zm0-22.18A10.58,10.58,0,1,0,216,197.31a10.58,10.58,0,0,0-10.41-12.59Z" fill="#231f20"/><path d="M208.48,186.38a.5.5,0,0,1-.45-.28s-2.67-5.44,1.8-9.27a.5.5,0,1,1,.65.75c-3.86,3.32-1.65,7.88-1.55,8.07a.5.5,0,0,1-.23.67A.46.46,0,0,1,208.48,186.38Z" fill="#231f20"/><path d="M203.21,208.25h-.09a.51.51,0,0,1-.4-.59l.45-2.35a.5.5,0,0,1,.59-.39.48.48,0,0,1,.39.58l-.45,2.35A.49.49,0,0,1,203.21,208.25Z" fill="#231f20"/><path d="M212.76,158.72h-.1a.5.5,0,0,1-.39-.59l.45-2.35a.5.5,0,0,1,.58-.39.49.49,0,0,1,.4.58l-.45,2.35A.51.51,0,0,1,212.76,158.72Z" fill="#231f20"/><path d="M205.23,201.1a.49.49,0,0,1-.45-.29L200,190.41a.5.5,0,1,1,.91-.42l4.8,10.4a.49.49,0,0,1-.24.66A.54.54,0,0,1,205.23,201.1Z" fill="#fff"/><path d="M211,200.32a.48.48,0,0,1-.45-.28c-1.26-2.7-3.35-7.1-3.7-7.61a.5.5,0,0,1,.54-.82c.22.09.41.17,4.06,8a.5.5,0,0,1-.24.67A.52.52,0,0,1,211,200.32Z" fill="#fff"/><path d="M210.62,174.24a.5.5,0,0,1-.45-.29l-4.8-10.4a.5.5,0,1,1,.9-.42l4.81,10.4a.5.5,0,0,1-.25.66A.38.38,0,0,1,210.62,174.24Z" fill="#fff"/><path d="M216.41,173.47a.52.52,0,0,1-.46-.29c-1.25-2.7-3.34-7.09-3.7-7.61a.5.5,0,0,1,.54-.82c.22.09.42.17,4.07,8a.49.49,0,0,1-.24.66A.54.54,0,0,1,216.41,173.47Z" fill="#fff"/></g></svg>