<svg xmlns="http://www.w3.org/2000/svg" viewBox="0 0 400 300"><g id="_462_painting_an_egg_flatline" data-name="#462_painting_an_egg_flatline"><ellipse cx="136.05" cy="259.29" rx="55.76" ry="3.8" fill="#e6e7e8"/><rect x="299.7" y="220.68" width="9.6" height="31.88" fill="#d1d3d4"/><path d="M309.29,253H299.7a.46.46,0,0,1-.46-.46V220.68a.46.46,0,0,1,.46-.45h9.59a.45.45,0,0,1,.46.45v31.88A.45.45,0,0,1,309.29,253Zm-9.13-.91h8.68v-31h-8.68Z" fill="#231f20"/><rect x="225.5" y="220.68" width="9.6" height="31.88" fill="#d1d3d4"/><path d="M235.1,253h-9.6a.45.45,0,0,1-.45-.46V220.68a.45.45,0,0,1,.45-.45h9.6a.46.46,0,0,1,.46.45v31.88A.46.46,0,0,1,235.1,253Zm-9.14-.91h8.68v-31H226Z" fill="#231f20"/><polygon points="320.28 210.31 214.51 210.31 219.47 192.5 315.33 192.5 320.28 210.31" fill="#fff"/><path d="M320.28,210.77H214.51a.44.44,0,0,1-.36-.18.47.47,0,0,1-.08-.4l5-17.81a.45.45,0,0,1,.44-.33h95.86a.46.46,0,0,1,.44.33l5,17.81a.47.47,0,0,1-.07.4A.45.45,0,0,1,320.28,210.77Zm-105.16-.91H319.68L315,193H219.82Z" fill="#231f20"/><ellipse cx="265.93" cy="203.75" rx="28.51" ry="3.04" fill="#e6e7e8"/><rect x="214.51" y="210.32" width="105.77" height="10.37" fill="#fff"/><path d="M320.28,221.14H214.51a.46.46,0,0,1-.45-.46V210.32a.45.45,0,0,1,.45-.46H320.28a.45.45,0,0,1,.46.46v10.36A.46.46,0,0,1,320.28,221.14ZM215,220.23H319.83v-9.46H215Z" fill="#231f20"/><path d="M314.36,156.51A60,60,0,0,1,312.7,171a48.29,48.29,0,0,1-2,6.2,44.41,44.41,0,0,1-3.92,7.69,40.87,40.87,0,0,1-6.84,8.08c-8.55,7.77-20.21,11.71-33.06,11.7a51.43,51.43,0,0,1-25.79-6.46,40.55,40.55,0,0,1-14.47-14,43.89,43.89,0,0,1-2.75-5.23,54.83,54.83,0,0,1-4.37-22.49,80.39,80.39,0,0,1,3.13-21.77c.39-1.44.84-2.86,1.31-4.27a86.47,86.47,0,0,1,3.43-8.57c8.5-18.3,23.05-32.28,39.57-32.27a32.55,32.55,0,0,1,17.3,5.25c11.55,7.18,20.88,21,25.94,36.46.45,1.38.87,2.78,1.25,4.19A80.11,80.11,0,0,1,314.36,156.51Z" fill="#fff"/><path d="M267,89.58h0a32.55,32.55,0,0,1,17.3,5.25c11.55,7.18,20.88,21,25.94,36.46.45,1.38.87,2.78,1.25,4.19a80.11,80.11,0,0,1,2.89,21A60,60,0,0,1,312.7,171a48.29,48.29,0,0,1-2,6.2,44.41,44.41,0,0,1-3.92,7.69,40.87,40.87,0,0,1-6.84,8.08c-8.54,7.76-20.18,11.7-33,11.7h-.05a51.43,51.43,0,0,1-25.79-6.46,40.55,40.55,0,0,1-14.47-14,43.89,43.89,0,0,1-2.75-5.23,54.83,54.83,0,0,1-4.37-22.49,80.39,80.39,0,0,1,3.13-21.77c.39-1.44.84-2.86,1.31-4.27a86.47,86.47,0,0,1,3.43-8.57c8.49-18.29,23-32.27,39.55-32.27m0-1h0c-8,0-16.15,3.29-23.43,9.52-6.72,5.74-12.6,13.81-17,23.33A85.58,85.58,0,0,0,223,130.1c-.55,1.66-1,3-1.32,4.32a80.81,80.81,0,0,0-3.17,22,55.93,55.93,0,0,0,4.46,22.9,43.39,43.39,0,0,0,2.81,5.35A41.71,41.71,0,0,0,240.63,199a52.7,52.7,0,0,0,26.29,6.59H267c13.43,0,25.08-4.14,33.68-12a41.77,41.77,0,0,0,7-8.28,45.07,45.07,0,0,0,4-7.86,49.14,49.14,0,0,0,2-6.34,61.08,61.08,0,0,0,1.69-14.68,80.62,80.62,0,0,0-2.93-21.29c-.38-1.42-.8-2.85-1.25-4.24-5.38-16.44-15-29.92-26.37-37A33.45,33.45,0,0,0,267,88.58Z" fill="#231f20"/><path d="M311.47,135.48a14,14,0,0,0-8.47,8.8c-.85,2.75-1.11,5.8-3.17,8a6.85,6.85,0,0,1-7.78,1.42,10.29,10.29,0,0,1-5.44-5.78,25,25,0,0,1-1.36-4.89c-.25-1.27-.34-3.3-1.14-4.38-1.81-2.46-4.16,2-4.52,3.34-.72,2.75-.86,5.62-2.25,8.17-2.74,5-8.81,5.2-13.1,2.09-5.27-3.83-5.6-10.26-8.14-15.75-.26-.57-.56-1.47-1.23-1.53s-1.31.61-1.7,1a10.87,10.87,0,0,0-2.12,3,35.47,35.47,0,0,0-2.45,8.13c-1.07,4.54-2.9,12.59-9.24,11.39-5.89-1.12-8.15-7.9-9.33-12.94-.71-3-1.29-6.4-3.39-8.76a6.19,6.19,0,0,0-4-2.12c.4-1.43.84-2.85,1.31-4.25,3.69.83,7,4.18,8.41,7.68,1.35,3.27,1.74,6.8,2.87,10.14.64,1.86,3.5,7.76,6.19,5.55,2-1.62,2.41-5.53,3-7.85a46.87,46.87,0,0,1,2.41-8.13,13.37,13.37,0,0,1,5.11-6.35,5.19,5.19,0,0,1,7.11,1.38c3.39,4.8,2.65,12.41,7.86,16,2,1.39,4.83,2,6.41-.37s1.44-5.77,2.35-8.49a8.71,8.71,0,0,1,4.84-5.69,5.84,5.84,0,0,1,6.91,1.51c1.88,2.39,1.87,5.93,2.64,8.77.62,2.27,2.34,5.91,5.34,5.46,2.51-.39,2.75-4.46,3.28-6.36a18.2,18.2,0,0,1,3.77-7,18.65,18.65,0,0,1,7.79-5.35C310.67,132.67,311.09,134.07,311.47,135.48Z" fill="#5fc6d2"/><path d="M312.7,171a48.59,48.59,0,0,1-2,6.22,92.55,92.55,0,0,1-20.29,8.35c-10.47,2.92-21.29,3.59-32.11,3a167.44,167.44,0,0,1-31.68-4.37,41.77,41.77,0,0,1-2.75-5.23q4.74,1.35,9.57,2.31a167.38,167.38,0,0,0,31.89,3.15,88.24,88.24,0,0,0,28.69-4.54A86.55,86.55,0,0,0,312.7,171Z" fill="#5fc6d2"/><path d="M306.82,184.85a40.53,40.53,0,0,1-6.84,8.08,91.41,91.41,0,0,1-10.63,3.67,100.14,100.14,0,0,1-32.12,3c-5.37-.28-10.75-.73-16.1-1.45a41.24,41.24,0,0,1-7.62-5.63,167.12,167.12,0,0,0,30.76,2.94A88.24,88.24,0,0,0,293,191,86.79,86.79,0,0,0,306.82,184.85Z" fill="#5fc6d2"/><circle cx="258.76" cy="164.15" r="4.96" fill="#5fc6d2"/><circle cx="242.72" cy="174.06" r="4.96" fill="#5fc6d2"/><circle cx="274.85" cy="176.75" r="4.96" fill="#5fc6d2"/><circle cx="269.92" cy="123.57" r="4.96" fill="#5fc6d2"/><circle cx="287.79" cy="164.16" r="4.96" fill="#5fc6d2"/><circle cx="287.82" cy="106.86" r="4.96" fill="#5fc6d2"/><circle cx="304.56" cy="164.17" r="4.96" fill="#5fc6d2"/><circle cx="292.77" cy="123.58" r="4.96" fill="#5fc6d2"/><path d="M284.28,94.83c-.27.68-.54,1.36-.83,2-1.74,4.08-4.5,8.54-8.9,9-2.36.26-4.76-.73-7.08-.27-2.92.57-5,3.24-6.18,6s-1.92,5.7-3.65,8.13a4.3,4.3,0,0,1-1.8,1.61c-1.87.75-3.89-.78-5.91-.7-3.49.15-4.87,4.53-5.21,8s-1.33,7.86-4.76,8.45c-2.62.45-5-1.83-6.05-4.25s-1.42-5.17-2.74-7.48a9,9,0,0,0-3.76-3.48c8.5-18.3,23.05-32.28,39.57-32.27A32.55,32.55,0,0,1,284.28,94.83Z" fill="#5fc6d2"/><path d="M145.36,186.84l6,59.32s20.64-1.33,20.47-2.33-6.83-65-6.83-65Z" fill="#fff"/><path d="M151.35,246.62a.47.47,0,0,1-.46-.42l-6-59.32a.47.47,0,0,1,.28-.47l19.63-8a.45.45,0,0,1,.41,0,.42.42,0,0,1,.22.34c2.3,22.1,6.68,64.1,6.83,64.95a.66.66,0,0,1-.12.43c-.79,1-13.35,2-20.77,2.43Zm-5.5-59.49,5.91,58.54c8.66-.56,18.1-1.44,19.57-2-.5-4.26-6-57.45-6.73-64.15Zm25.51,56.77h0Z" fill="#231f20"/><polygon points="103.72 183.51 101.84 244.42 121.96 244.99 126.47 185.5 103.72 183.51" fill="#fff"/><path d="M122,245.45h0l-20.12-.58a.45.45,0,0,1-.32-.14.5.5,0,0,1-.12-.33l1.89-60.91a.44.44,0,0,1,.15-.32.42.42,0,0,1,.34-.12l22.74,2a.46.46,0,0,1,.42.49L122.41,245A.46.46,0,0,1,122,245.45ZM102.31,244l19.22.55,4.44-58.6L104.16,184Z" fill="#231f20"/><path d="M212.24,110.41a30.32,30.32,0,0,1,2.41-3.22,3.3,3.3,0,0,0,3-.51,16.62,16.62,0,0,0,3.66-3.33c1.28-1.35,2.69-.93,4.29-1.73,3.88-1.92-7.94-8-9.5-8.52a8,8,0,0,0-6,.27,12,12,0,0,0-2.9,2.42c-3.83,3.95-7.61,7.92-11.7,11.59-2.64,2.37-15.43,11.45-15.43,11.45a54.35,54.35,0,0,1-3.42-8.3c-.37-1.55.24-1.3,0-2.76-5.53.93-11.38,4.44-16.61,6.57.66.77,2,30,8,32.09,6.87,2.43,13.54-2.13,18.29-6.42a182.48,182.48,0,0,0,16.5-16.64c2.26-2.65,4.34-5.45,6.38-8.27C210.27,113.56,211.21,112,212.24,110.41Z" fill="#fff"/><path d="M172,147.57a12.35,12.35,0,0,1-4.12-.71c-4.82-1.71-6.65-18.63-7.63-27.73-.24-2.18-.46-4.25-.59-4.55a.4.4,0,0,1-.08-.38.45.45,0,0,1,.29-.28c1.61-.65,3.24-1.42,5-2.24,3.86-1.82,7.86-3.71,11.75-4.36a.45.45,0,0,1,.52.37,3,3,0,0,1,0,1.49,2.17,2.17,0,0,0,0,1.24,48.79,48.79,0,0,0,3.15,7.72c2.26-1.61,12.64-9,15-11.1,3.66-3.28,7.12-6.86,10.48-10.33l1.2-1.24a12.17,12.17,0,0,1,3-2.5,8.3,8.3,0,0,1,6.32-.31c1,.3,10.34,4.81,10.59,7.81a1.54,1.54,0,0,1-1,1.56,7.49,7.49,0,0,1-1.92.6,3.74,3.74,0,0,0-2.24,1l-.59.64a13.79,13.79,0,0,1-3.17,2.77,3.92,3.92,0,0,1-3.05.66,29.7,29.7,0,0,0-2.17,2.94h0l-1.05,1.63c-.64,1-1.31,2.06-2,3.08-1.83,2.53-4,5.5-6.4,8.29a181.64,181.64,0,0,1-16.54,16.69C181.24,145.18,176.41,147.57,172,147.57Zm-11.39-33c.12.58.26,1.77.54,4.43.83,7.61,2.76,25.44,7,27,5.25,1.86,11.08-.21,17.84-6.32a179.66,179.66,0,0,0,16.45-16.6c2.36-2.77,4.54-5.72,6.36-8.24.72-1,1.38-2,2-3,.35-.55.7-1.1,1.06-1.64h0a30.14,30.14,0,0,1,2.45-3.27.44.44,0,0,1,.53-.11,2.84,2.84,0,0,0,2.54-.5,12.9,12.9,0,0,0,3-2.6l.6-.65a4.65,4.65,0,0,1,2.72-1.3,6.47,6.47,0,0,0,1.7-.52c.55-.27.53-.55.52-.66-.18-2.17-8.55-6.59-9.95-7a7.48,7.48,0,0,0-5.63.25,11.19,11.19,0,0,0-2.78,2.32l-1.21,1.25c-3.36,3.48-6.84,7.07-10.52,10.37-2.63,2.36-14.94,11.11-15.47,11.48a.44.44,0,0,1-.37.07.45.45,0,0,1-.3-.24,53.94,53.94,0,0,1-3.46-8.4,3.06,3.06,0,0,1,0-1.66,1.86,1.86,0,0,0,.07-.66c-3.62.69-7.39,2.47-11,4.19C163.58,113.26,162.06,114,160.56,114.61Z" fill="#231f20"/><path d="M138.8,81.64s-5.3-4-20.84-.63c-21.18,4.56-32.49,25.64-32.49,25.64l13.9,22,5.6-7.34s-.61,18.86.46,31.3L164,148.28l-1.14-28.59L181,117.63s-5.4-19-9.14-24.89S150.88,79.8,138.8,81.64Z" fill="#5fc6d2"/><path d="M142.45,81.07l1.06,8.23s-.32,2.37-8.53.07-9.13-6.14-9.13-6.14l-1-16.33c0-1,.45-10.63.29-19.19,10-.16,27.5-1.55,29.05-1,.57,5.73.58,23.47-.11,26.8C152.73,79.87,142.45,81.07,142.45,81.07Z" fill="#fff"/><path d="M140.77,90.84a23.29,23.29,0,0,1-5.91-1c-8.37-2.34-9.41-6.31-9.45-6.47-1-16.43-1-16.43-1-16.46v-.13c.13-3.24.42-11.58.28-19a.48.48,0,0,1,.13-.32.45.45,0,0,1,.32-.14c4.29-.07,10.09-.37,15.2-.64,8.33-.43,13.09-.66,14-.34a.47.47,0,0,1,.3.39c.57,5.66.59,23.53-.11,27C153.28,79.5,145,81.13,143,81.46l1,7.78v.13a1.36,1.36,0,0,1-.68.9A4.59,4.59,0,0,1,140.77,90.84ZM126.31,83.2s1.06,3.57,8.79,5.73c6.63,1.86,7.79.57,8,.32L142,81.12a.42.42,0,0,1,.09-.34.48.48,0,0,1,.31-.17c.1,0,10-1.23,11.2-7.19.69-3.3.67-20.39.13-26.34-1.5-.17-7.53.14-13.38.44-4.94.26-10.52.55-14.78.63.13,7.37-.16,15.46-.29,18.64v.13c0,.13,1,16.24,1,16.28Z" fill="#231f20"/><path d="M141.79,63.84c1.07,1.9,2.14,4.15,1.57,4.77-1,1.12-3.92.38-3.92.38" fill="#fff"/><path d="M141.35,69.73a8.71,8.71,0,0,1-2-.26.5.5,0,0,1,.25-1c.68.18,2.75.51,3.43-.23,0,0,.37-.63-1.64-4.18a.5.5,0,0,1,.19-.68.51.51,0,0,1,.69.19c2.16,3.83,1.93,4.87,1.49,5.35A3.19,3.19,0,0,1,141.35,69.73Z" fill="#231f20"/><path d="M142.45,81.07s-6.66.07-9.18-2.21c0,0,2.32,4.55,9.44,8.74Z" fill="#231f20"/><path d="M142.71,88.1a.59.59,0,0,1-.26-.07c-7.15-4.21-9.53-8.75-9.62-9a.49.49,0,0,1,.77-.59c2.35,2.12,8.77,2.07,8.84,2.08a.48.48,0,0,1,.51.48l.25,6.53A.5.5,0,0,1,143,88,.59.59,0,0,1,142.71,88.1Zm-7.8-7.71a28.34,28.34,0,0,0,7.26,6.3l-.2-5.13A22.39,22.39,0,0,1,134.91,80.39Z" fill="#231f20"/><ellipse cx="146.68" cy="59.56" rx="0.98" ry="2.31" fill="#231f20"/><ellipse cx="136.28" cy="59.56" rx="0.98" ry="2.31" fill="#231f20"/><path d="M124.13,61.87s5.34-2.68,9.14-12c.08-.21,16.84,5.42,18.17,5.65,4,.68,6.1-.73,7.49-5.11.89-2.81,1-9.53-.71-11.51a9.57,9.57,0,0,1-6.34,4.66,6.42,6.42,0,0,0,.93-11,8.34,8.34,0,0,1-4.41,4.81,19.2,19.2,0,0,1-6.48,1.63,5.7,5.7,0,0,0,1.44-7.35,10.15,10.15,0,0,1-6.59,3.76c-2.64.34-5.32-.37-8-.2-7.61.49-10.73,10.37-10.67,16.65,0,1.44,3.34,13.15,3,13.51Z" fill="#fff"/><path d="M121.15,65.75a.48.48,0,0,1-.3-.11.45.45,0,0,1-.13-.49c0-.57-.83-3.8-1.48-6.41a59,59,0,0,1-1.57-7c-.07-6.8,3.33-16.6,11.09-17.11a24.17,24.17,0,0,1,3.72.14,19.37,19.37,0,0,0,4.23.07A9.6,9.6,0,0,0,143,31.29a.5.5,0,0,1,.39-.18.45.45,0,0,1,.36.22,6.16,6.16,0,0,1-.51,7,16.72,16.72,0,0,0,5-1.41,7.87,7.87,0,0,0,4.17-4.53.44.44,0,0,1,.29-.3.46.46,0,0,1,.41.05,6.84,6.84,0,0,1,1.33,10,10,10,0,0,0,3.43-3.47.51.51,0,0,1,.35-.22.49.49,0,0,1,.39.16c1.91,2.2,1.65,9.25.8,11.94-1.46,4.59-3.77,6.16-8,5.43-.63-.11-4-1.2-9.13-2.85-3.38-1.09-7.51-2.42-8.68-2.74-3.59,8.63-8.42,11.51-9.13,11.9l-2.92,3.36h0A.44.44,0,0,1,121.15,65.75Zm-.34-.76Zm8.86-29.43c-.29,0-.57,0-.85,0-7.16.46-10.3,9.74-10.24,16.18,0,.65.82,3.89,1.54,6.74.77,3.06,1.18,4.74,1.37,5.7l2.29-2.64.14-.11s5.25-2.74,8.93-11.81c.2-.5.2-.5,9.66,2.55,3.94,1.27,8.4,2.71,9,2.82,3.78.65,5.67-.65,7-4.8.81-2.56.9-8.26-.27-10.54A9.87,9.87,0,0,1,152,44a.45.45,0,0,1-.52-.3.46.46,0,0,1,.24-.56A6,6,0,0,0,153,33.23a9,9,0,0,1-4.42,4.47A19.67,19.67,0,0,1,142,39.37a.43.43,0,0,1-.47-.29.45.45,0,0,1,.15-.53,5.29,5.29,0,0,0,1.62-6.17,10.54,10.54,0,0,1-6.44,3.4,19.86,19.86,0,0,1-4.43-.06C131.5,35.64,130.58,35.56,129.67,35.56Z" fill="#231f20"/><path d="M128.29,60.13s-3.72-5.85-7.88-1.53-.15,10.3,5.65,11.47" fill="#fff"/><path d="M126.06,70.53H126c-3.54-.71-6.53-3.17-7.45-6.12a6,6,0,0,1,1.56-6.12A4.79,4.79,0,0,1,124,56.57c2.7.27,4.58,3.19,4.66,3.31a.46.46,0,0,1-.14.63.44.44,0,0,1-.63-.14s-1.73-2.66-4-2.89a3.88,3.88,0,0,0-3.18,1.43,5,5,0,0,0-1.35,5.21c.82,2.65,3.54,4.86,6.76,5.51a.45.45,0,0,1,.36.53A.47.47,0,0,1,126.06,70.53Z" fill="#231f20"/><polygon points="104.82 133.27 97.16 214.43 132.46 217.19 137.77 174.53 140.38 217.74 172.07 211.98 163.97 130.28 104.82 133.27" fill="#231f20"/><path d="M140.38,218.24a.51.51,0,0,1-.31-.11.5.5,0,0,1-.19-.36l-2.28-37.83L133,217.25a.51.51,0,0,1-.54.43l-35.3-2.75a.5.5,0,0,1-.34-.18.49.49,0,0,1-.12-.37l7.67-81.15a.49.49,0,0,1,.47-.45l59.14-3a.5.5,0,0,1,.52.45l8.11,81.7a.5.5,0,0,1-.41.54l-31.69,5.76ZM137.77,174h0a.5.5,0,0,1,.48.47l2.57,42.65,30.69-5.57-8-80.78-58.24,2.95L97.7,214,132,216.65l5.25-42.19A.49.49,0,0,1,137.77,174Z" fill="#231f20"/><path d="M140.15,73.87a6,6,0,0,1-1.9-.3c-3.38-1.08-4.6-4.78-4.65-4.94a.51.51,0,0,1,.32-.63.5.5,0,0,1,.63.32s1.13,3.38,4,4.3c2.15.69,4.78-.09,7.81-2.34a.5.5,0,1,1,.59.8C144.48,72.94,142.19,73.87,140.15,73.87Z" fill="#231f20"/><path d="M117.41,161.22c.66-1-8.76-78.52-8.76-78.52L115.27,81l11.19,80.18Z" fill="#231f20"/><path d="M126.46,161.72h-9a.51.51,0,0,1-.44-.26.47.47,0,0,1,0-.4c.3-2.46-6.23-57.3-8.79-78.3a.5.5,0,0,1,.38-.55l6.62-1.66a.53.53,0,0,1,.39.07.51.51,0,0,1,.22.35L127,161.15a.52.52,0,0,1-.12.4A.49.49,0,0,1,126.46,161.72Zm-8.59-1h8l-11-79.06-5.66,1.41C112.5,110.26,117.75,154.31,117.87,160.72Z" fill="#231f20"/><polygon points="146.68 135.94 152.46 82.7 158.59 84.35 153.45 136.61 146.68 135.94" fill="#231f20"/><path d="M153.45,137.11h0l-6.77-.66a.48.48,0,0,1-.34-.18.56.56,0,0,1-.11-.37L152,82.64a.5.5,0,0,1,.21-.35.46.46,0,0,1,.41-.07l6.14,1.65a.5.5,0,0,1,.36.53L154,136.66A.51.51,0,0,1,153.45,137.11Zm-6.22-1.61,5.78.56,5-51.34-5.16-1.39Z" fill="#231f20"/><path d="M163,124.46h0a.49.49,0,0,1-.47-.52l1.2-23.16a.51.51,0,0,1,.53-.47.5.5,0,0,1,.47.52L163.5,124A.5.5,0,0,1,163,124.46Z" fill="#231f20"/><path d="M105,121.76a.5.5,0,0,1-.5-.49v-25a.5.5,0,0,1,.5-.5.5.5,0,0,1,.5.5v25A.49.49,0,0,1,105,121.76Z" fill="#231f20"/><path d="M229.62,106.47s-6.45-2.08-14.31-4.71c-11.83-4-26.83-9.2-27.84-10.49-1.68-2.15-1.72-3.92,1.85-3.74,2.2.11,16.67,6.08,27.53,10.66,6.83,2.9,12.23,5.25,12.23,5.25Z" fill="#fff"/><path d="M229.62,107l-.15,0c-.07,0-6.55-2.11-14.32-4.72-26.78-9-27.75-10.25-28.07-10.66-1.12-1.43-1.47-2.59-1-3.43s1.51-1.2,3.29-1.1,11.11,3.68,27.7,10.7c6.84,2.9,12.24,5.24,12.24,5.24a.5.5,0,0,1,.29.37l.54,3a.5.5,0,0,1-.16.46A.5.5,0,0,1,229.62,107ZM188.85,88c-1,0-1.72.2-1.92.58s.12,1.32.93,2.36c.35.44,3.74,2.31,27.61,10.33,6.19,2.07,11.56,3.82,13.52,4.46l-.35-2c-1.13-.49-6-2.6-12-5.14C195,89.52,190.24,88.08,189.3,88Z" fill="#231f20"/><path d="M229.62,106.47s-6.45-2.08-14.31-4.71h0a15.41,15.41,0,0,1,1.54-3.56c6.83,2.9,12.23,5.25,12.23,5.25Z" fill="#fff"/><path d="M229.62,107l-.15,0c-.07,0-6.55-2.11-14.32-4.72a.49.49,0,0,1-.33-.41.55.55,0,0,1,0-.22,16.1,16.1,0,0,1,1.6-3.67.48.48,0,0,1,.61-.19c6.84,2.9,12.24,5.24,12.24,5.24a.5.5,0,0,1,.29.37l.54,3a.5.5,0,0,1-.16.46A.5.5,0,0,1,229.62,107Zm-13.69-5.53c6,2,11.15,3.69,13.06,4.31l-.35-2c-1.1-.48-5.79-2.51-11.58-5A15.57,15.57,0,0,0,215.93,101.44Z" fill="#231f20"/><path d="M238.62,113c-2.67-.16-5.39-.27-7.46-1.17-2.36-1-3.86-3.08-3.39-7.37a10,10,0,0,1,5.09-3.07c2.17-.35,4.7.51,6.91,4.67a7.41,7.41,0,0,0,7.66,4A11.52,11.52,0,0,1,238.62,113Z" fill="#fff"/><path d="M239.46,113.56l-.87,0h0l-.45,0c-2.53-.15-5.15-.3-7.18-1.18-2.92-1.28-4.13-3.86-3.68-7.88a.5.5,0,0,1,.11-.27,10.28,10.28,0,0,1,5.39-3.24c2.93-.48,5.44,1.18,7.43,4.92a6.88,6.88,0,0,0,7.13,3.75.51.51,0,0,1,.53.26.5.5,0,0,1-.08.58A11.79,11.79,0,0,1,239.46,113.56Zm-.81-1a11.8,11.8,0,0,0,7.3-1.89,7.77,7.77,0,0,1-6.62-4.33c-1.77-3.33-3.92-4.81-6.39-4.41a9.3,9.3,0,0,0-4.69,2.79c-.46,4.59,1.55,6,3.11,6.7,1.87.82,4.39,1,6.84,1.11Z" fill="#231f20"/><path d="M238.62,113c-2.67-.16-5.39-.27-7.46-1.17,1.31-1,3.26-1.11,4.94-1.49.34-.08.74-.22.84-.56.23-.75-1-.91-1.6-1.43a1.11,1.11,0,0,1,.44-1.8,2.52,2.52,0,0,0,.74-.19c.71-.53-2.14-2.72-3.66-5,2.17-.35,4.7.51,6.91,4.67a7.41,7.41,0,0,0,7.66,4A11.52,11.52,0,0,1,238.62,113Z" fill="#5fc6d2"/><path d="M239.46,113.56l-.87,0h0l-.45,0a22.14,22.14,0,0,1-7.18-1.19.5.5,0,0,1-.3-.4.5.5,0,0,1,.2-.46,9.34,9.34,0,0,1,3.94-1.35c.4-.07.8-.14,1.19-.23s.46-.18.47-.21-.38-.29-.59-.39a3.56,3.56,0,0,1-.87-.53,1.62,1.62,0,0,1,.65-2.66L236,106h.1a12.66,12.66,0,0,0-1.39-1.65,23.19,23.19,0,0,1-2.23-2.67.49.49,0,0,1,0-.48.51.51,0,0,1,.38-.3c2.94-.47,5.44,1.19,7.43,4.93a6.88,6.88,0,0,0,7.13,3.75.5.5,0,0,1,.45.84A11.79,11.79,0,0,1,239.46,113.56Zm-.81-1a11.64,11.64,0,0,0,7.29-1.88,7.77,7.77,0,0,1-6.61-4.33c-1.56-2.93-3.42-4.44-5.53-4.47.51.64,1.09,1.27,1.62,1.84,1.19,1.29,1.77,1.94,1.71,2.55a.76.76,0,0,1-.31.55,1.44,1.44,0,0,1-.71.23l-.2,0a.62.62,0,0,0-.23,1,2.62,2.62,0,0,0,.63.38c.52.25,1.38.67,1.11,1.57a1.44,1.44,0,0,1-1.21.89l-1.23.25a14.15,14.15,0,0,0-2.62.66,27.8,27.8,0,0,0,5.84.75l.45,0Z" fill="#231f20"/><path d="M204.83,234.27v22.1c0,2.66,7.8,4.82,17.42,4.82s17.43-2.16,17.43-4.82v-22.1Z" fill="#fff"/><path d="M222.25,261.69c-8.68,0-17.92-1.86-17.92-5.32v-22.1a.5.5,0,0,1,.5-.49h34.85a.5.5,0,0,1,.5.49v22.1C240.18,259.83,230.94,261.69,222.25,261.69Zm-16.92-26.92v21.6c0,2.05,6.95,4.32,16.92,4.32s16.93-2.27,16.93-4.32v-21.6Z" fill="#231f20"/><ellipse cx="222.25" cy="234.27" rx="17.42" ry="4.82" fill="#fff"/><path d="M222.25,239.59c-8.68,0-17.92-1.86-17.92-5.32s9.24-5.31,17.92-5.31,17.93,1.86,17.93,5.31S230.94,239.59,222.25,239.59Zm0-9.64c-10,0-16.92,2.28-16.92,4.32s6.95,4.33,16.92,4.33,16.93-2.28,16.93-4.33S232.23,230,222.25,230Z" fill="#231f20"/><path d="M235.85,234.27c0,.42-.41.84-1.16,1.2a9.16,9.16,0,0,1-1.05.42,48.72,48.72,0,0,1-22.78,0,10.39,10.39,0,0,1-1.05-.42c-.73-.37-1.15-.78-1.15-1.2,0-1.63,6.08-3,13.59-3S235.85,232.64,235.85,234.27Z" fill="#fff"/><path d="M222.25,237.74a40.8,40.8,0,0,1-11.55-1.37,9.69,9.69,0,0,1-1.12-.46c-.94-.47-1.41-1-1.41-1.64,0-2.54,8.42-3.47,14.08-3.47s14.1.93,14.1,3.47c0,.63-.49,1.18-1.44,1.64a9.22,9.22,0,0,1-1.11.46A40.8,40.8,0,0,1,222.25,237.74Zm0-5.94c-8.47,0-13.09,1.63-13.09,2.47,0,.12.18.41.87.75a8.31,8.31,0,0,0,1,.4,48.43,48.43,0,0,0,22.46,0,7.31,7.31,0,0,0,1-.4c.7-.34.88-.63.88-.75C235.35,233.43,230.73,231.8,222.25,231.8Z" fill="#231f20"/><path d="M233.64,235.89a48.72,48.72,0,0,1-22.78,0,49.08,49.08,0,0,1,22.78,0Z" fill="#5fc6d2"/><path d="M222.25,237.74a40.44,40.44,0,0,1-11.55-1.37.5.5,0,0,1,0-1,49.37,49.37,0,0,1,23.1,0,.5.5,0,0,1,0,1A40.44,40.44,0,0,1,222.25,237.74Zm-9.47-1.85a53.18,53.18,0,0,0,18.94,0,53.8,53.8,0,0,0-18.94,0Z" fill="#231f20"/><path d="M222.26,243c0,.28,0,.65.33.72s.53-.35.57-.69.12-.77.46-.82v4.69a31.63,31.63,0,0,0,.22,4.67,2.14,2.14,0,0,0,.37,1,.8.8,0,0,0,1,.25.85.85,0,0,0,.3-.35,5.91,5.91,0,0,0,.48-3.24,56.23,56.23,0,0,1,.19-6.36,1.13,1.13,0,0,1,.37-.9.81.81,0,0,1,.91.11,3.06,3.06,0,0,1,.6.78,5.94,5.94,0,0,0,.94,1.12.78.78,0,0,0,.71.29c.43-.14.33-.76.21-1.19-.62-2.28.86-4.7.38-7a.76.76,0,0,0-1-.75c-1.9.34-3.9.39-5.83.58a1.46,1.46,0,0,0-.62.16,1.12,1.12,0,0,0-.43.95c0,1,0,1.91-.06,2.9Z" fill="#5fc6d2"/><path d="M215.53,259.09a2.18,2.18,0,0,1,1.63-1.58,1.24,1.24,0,0,1,.81.06c.86.43.58,1.86,1.33,2.45a2.07,2.07,0,0,0,1.35.27,29.81,29.81,0,0,1,7.29.76c-.16.7-1,1-1.71,1.08a36.25,36.25,0,0,1-6.33.47.82.82,0,0,0-.6.14c-.36.35.18.95.69,1s1.06-.15,1.47.14c0,.75-1,1-1.75,1-2.38,0-4.76,0-7.14,0a1.11,1.11,0,0,1-.67-.15c-.37-.26-.31-.83-.12-1.24a3.19,3.19,0,0,1,2-1.64,4.42,4.42,0,0,0-1.29-.54C213.76,260.47,215.1,260.79,215.53,259.09Z" fill="#5fc6d2"/><path d="M250.88,241.51v22.1c0,2.67,7.8,4.82,17.43,4.82s17.42-2.15,17.42-4.82v-22.1Z" fill="#fff"/><path d="M268.31,268.93c-8.69,0-17.93-1.86-17.93-5.32v-22.1a.5.5,0,0,1,.5-.49h34.85a.5.5,0,0,1,.5.49v22.1C286.23,267.07,277,268.93,268.31,268.93ZM251.38,242v21.6c0,2.05,6.95,4.33,16.93,4.33s16.92-2.28,16.92-4.33V242Z" fill="#231f20"/><ellipse cx="268.31" cy="241.51" rx="17.42" ry="4.82" fill="#fff"/><path d="M268.31,246.83c-8.69,0-17.93-1.86-17.93-5.32s9.24-5.31,17.93-5.31,17.92,1.86,17.92,5.31S277,246.83,268.31,246.83Zm0-9.64c-10,0-16.93,2.28-16.93,4.32s6.95,4.33,16.93,4.33,16.92-2.28,16.92-4.33S278.28,237.19,268.31,237.19Z" fill="#231f20"/><path d="M281.9,241.52c0,.42-.41.83-1.16,1.19a9.16,9.16,0,0,1-1.05.42,48.72,48.72,0,0,1-22.78,0,10.39,10.39,0,0,1-1.05-.42c-.73-.37-1.15-.77-1.15-1.19,0-1.64,6.08-3,13.59-3S281.9,239.88,281.9,241.52Z" fill="#fff"/><path d="M268.3,245a40.44,40.44,0,0,1-11.55-1.37,9.69,9.69,0,0,1-1.12-.46c-.94-.47-1.41-1-1.41-1.63,0-2.55,8.42-3.48,14.08-3.48s14.1.93,14.1,3.48c0,.62-.49,1.18-1.44,1.64a11.17,11.17,0,0,1-1.11.45A40.44,40.44,0,0,1,268.3,245Zm0-5.94c-8.47,0-13.09,1.63-13.09,2.48,0,.14.23.42.87.74a10.12,10.12,0,0,0,1,.41A39.73,39.73,0,0,0,268.3,244a39.31,39.31,0,0,0,11.23-1.32,6.82,6.82,0,0,0,1-.4c.7-.33.88-.63.88-.74C281.4,240.67,276.78,239,268.3,239Z" fill="#231f20"/><path d="M279.69,243.13a48.72,48.72,0,0,1-22.78,0,49.08,49.08,0,0,1,22.78,0Z" fill="#5fc6d2"/><path d="M268.3,245a40.44,40.44,0,0,1-11.55-1.37.5.5,0,0,1,0-1,49.37,49.37,0,0,1,23.1,0,.5.5,0,0,1,0,1A40.44,40.44,0,0,1,268.3,245Zm-9.47-1.85a53.18,53.18,0,0,0,18.94,0,53.8,53.8,0,0,0-18.94,0Z" fill="#231f20"/><path d="M263.92,249.69a1,1,0,0,0,.47.4,1,1,0,0,0,.63,0,2.13,2.13,0,0,0,1.48-1.54c0-.15.09-.34.24-.36a.25.25,0,0,1,.17,0,3.47,3.47,0,0,1,1,1c.31.36.83.66,1.24.43a1.09,1.09,0,0,0,.47-.76c.19-.8.11-1.64.25-2.45s2-3.43.93-3.87a1,1,0,0,0-.56,0c-1.9.34-3.9.39-5.83.58-1.56.15-1,3-1,4.18a4.18,4.18,0,0,0,.48,2.29A.43.43,0,0,0,263.92,249.69Z" fill="#5fc6d2"/><path d="M122,245s-1.34,12.85-2,13c-7.32,1.22-33.21,2.27-34.38.05-1.69-3.17,16.26-13.58,16.26-13.58Z" fill="#231f20"/><path d="M97,259.81c-6.15,0-11.23-.4-11.85-1.57-1.78-3.34,12.14-11.75,16.45-14.25a.46.46,0,0,1,.26-.07l20.12.58a.46.46,0,0,1,.36.17.47.47,0,0,1,.12.38c-1.38,13.22-2,13.32-2.41,13.39A196,196,0,0,1,97,259.81Zm5-14.89C93.57,249.8,85.12,256.08,86,257.77c.9,1.23,22.4,1.55,33.66-.28a103.86,103.86,0,0,0,1.72-12Z" fill="#231f20"/><path d="M151.35,246.16l.51,11s37.86,2.35,37-.93-17-12.43-17-12.43Z" fill="#231f20"/><path d="M175.12,258.52c-9.17,0-20-.62-23.29-.83a.5.5,0,0,1-.47-.47l-.51-11a.5.5,0,0,1,.44-.52l20.47-2.33a.53.53,0,0,1,.3.07c1.67.94,16.34,9.35,17.25,12.73a.9.9,0,0,1-.19.83C188.15,258.15,182.12,258.52,175.12,258.52Zm-22.79-1.8c17.08,1,35.11,1.18,36-.39-.62-2.18-10.24-8.34-16.65-12l-19.85,2.26Z" fill="#231f20"/><path d="M88.44,111.35s-11,17.28-8.28,33.4,24.49,10.8,40.59-1.51c0,0,18.6-13.64,15.91-15.61S117,131.44,117,131.44s-14,3.41-15.79,3,3.16-5.24,3.16-5.24" fill="#fff"/><path d="M92.81,155.23a16.43,16.43,0,0,1-6-1c-3.92-1.54-6.32-4.71-7.13-9.42-2.77-16.11,8.23-33.56,8.34-33.73a.48.48,0,0,1,.64-.14.45.45,0,0,1,.13.63c-.11.17-10.92,17.33-8.21,33.08.76,4.38,3,7.32,6.57,8.73,7.6,3,21.29-1.34,33.29-10.52,6.19-4.54,16-12.53,16-14.7a.19.19,0,0,0-.08-.18c-1.83-1.33-12.76,1.67-19.22,3.88-1.48.36-14.19,3.43-16,3a.88.88,0,0,1-.71-.63c-.36-1.29,2.43-4.19,3.65-5.38a.46.46,0,1,1,.64.65c-2,1.91-3.55,4-3.41,4.48,1.25.26,10-1.65,15.61-3,1.72-.59,17.2-5.78,20-3.74a1.1,1.1,0,0,1,.46.92c0,3.34-14.68,14.2-16.36,15.43C110.17,151.91,100,155.23,92.81,155.23Z" fill="#231f20"/><path d="M89.36,139.05a.46.46,0,0,1-.13-.9l20.16-5.77a.45.45,0,1,1,.25.87L89.49,139Z" fill="#231f20"/><ellipse cx="126.46" cy="128.44" rx="29.45" ry="14.81" fill="#fff"/><path d="M126.46,143.7c-16.48,0-29.9-6.85-29.9-15.26s13.42-15.27,29.9-15.27,29.91,6.85,29.91,15.27S143,143.7,126.46,143.7Zm0-29.61c-16,0-29,6.43-29,14.35s13,14.35,29,14.35,29-6.44,29-14.35S142.45,114.09,126.46,114.09Z" fill="#231f20"/><ellipse cx="120.59" cy="119.88" rx="7.43" ry="3.22" fill="#231f20"/><path d="M120.59,123.59c-4.45,0-7.93-1.63-7.93-3.71s3.48-3.72,7.93-3.72,7.92,1.63,7.92,3.72S125,123.59,120.59,123.59Zm0-6.43c-4.09,0-6.94,1.43-6.94,2.72s2.85,2.72,6.94,2.72,6.93-1.44,6.93-2.72S124.67,117.16,120.59,117.16Z" fill="#231f20"/><path d="M119.92,122.13s.11-6.47,4-6.24,10.65,1.44,8.65,2.66-6.65,1.33-6.65,1.33l-.33,1.66" fill="#fff"/><path d="M119.92,122.58h0a.46.46,0,0,1-.45-.46c0-.16.1-4,2-5.81a3.21,3.21,0,0,1,2.47-.88c.09,0,8.95.62,9.42,2.48,0,.22.06.65-.56,1-1.76,1.07-5.35,1.33-6.51,1.38l-.27,1.31a.45.45,0,0,1-.53.36.46.46,0,0,1-.36-.54l.33-1.66a.47.47,0,0,1,.44-.37s4.56-.12,6.43-1.26l.1-.08c-.57-.59-4.64-1.52-8.54-1.74a2.35,2.35,0,0,0-1.8.63c-1.63,1.52-1.71,5.13-1.71,5.17A.45.45,0,0,1,119.92,122.58Z" fill="#231f20"/><path d="M102.67,126.93a2.36,2.36,0,0,0,1.73,2.27l1.7.4a2.4,2.4,0,0,0,.83.47,2.19,2.19,0,0,0,1.19,0,6.57,6.57,0,0,0,3.73-.11,2.66,2.66,0,0,0,1.23-.84,2.32,2.32,0,0,0,.47-1.12,2.37,2.37,0,0,0-1.13-2.36,26.75,26.75,0,0,0-5.29-2.17,2.35,2.35,0,0,0-2.69,1.17h0A2.42,2.42,0,0,0,102.67,126.93Z" fill="#5fc6d2"/><path d="M113.66,133.82a2.8,2.8,0,0,1,2-1.33,2.16,2.16,0,0,1,1.37-1.05,30.27,30.27,0,0,1,5.79-1.14,5.67,5.67,0,0,1,5.17,2.89,2.36,2.36,0,0,1,.12,2.1,2.48,2.48,0,0,1-1.53,1.37,12.2,12.2,0,0,1-4.74.8c-.37,0-.73-.05-1.09-.09l-.76-.11a4,4,0,0,1-.72.63,4.14,4.14,0,0,1-5.58-.86A3,3,0,0,1,113.66,133.82Z" fill="#5fc6d2"/><path d="M130.05,132.69a30.87,30.87,0,0,1,3.91,1.05,3.07,3.07,0,0,0,.2.5,4.38,4.38,0,0,0,2.7,2,8.35,8.35,0,0,0,3,.39,2.93,2.93,0,0,0,2.94-2.93,10.37,10.37,0,0,0-.29-1.65c-.09-.4-.16-.8-.25-1.2a3.6,3.6,0,0,0-2.61-2.77,19.85,19.85,0,0,0-3-.42c-.94-.09-1.88-.13-2.82-.13a2.33,2.33,0,0,0-1.75.81l-.78-.18a2.43,2.43,0,0,0-2.91,1.66A2.38,2.38,0,0,0,130.05,132.69Z" fill="#e6e7e8"/><path d="M139,123.31a2.4,2.4,0,0,1,2-1.45,1.71,1.71,0,0,1,1-.25,3.46,3.46,0,0,1,1.38.37,3,3,0,0,1,.77.69,11.42,11.42,0,0,0,2.41,0,3.09,3.09,0,0,1,2.44.16,2.84,2.84,0,0,1,1.23,3,2.94,2.94,0,0,1-2.05,2.13,5,5,0,0,1-2,0,22.41,22.41,0,0,1-5.49-1.49l-.12,0h0l-.57-.22a2.37,2.37,0,0,1-1.08-1.42A2.44,2.44,0,0,1,139,123.31Z" fill="#e6e7e8"/><path d="M202,104.59s3.05-5.29,8.13-6.83,13.88-2.37,11.53,0-10.08,4.09-10.08,4.09a31.36,31.36,0,0,1-4.3,5.35" fill="#fff"/><path d="M207.26,107.66a.47.47,0,0,1-.33-.14.45.45,0,0,1,0-.65,31.56,31.56,0,0,0,4.23-5.26.4.4,0,0,1,.28-.2c.08,0,7.63-1.72,9.86-4,.24-.25.26-.37.26-.37-.42-.66-6.42-.36-11.34,1.13s-7.84,6.57-7.87,6.62a.46.46,0,0,1-.79-.46c.13-.22,3.21-5.46,8.4-7,3.23-1,11.36-2.41,12.38-.71.18.3.26.8-.39,1.46-2.24,2.26-8.89,3.89-10.12,4.17a31.24,31.24,0,0,1-4.28,5.28A.42.42,0,0,1,207.26,107.66Z" fill="#231f20"/></g></svg>